<svg width="124" height="120" viewBox="0 0 124 120" fill="none" xmlns="http://www.w3.org/2000/svg">
    <path d="M70.9919 5.06845V10.9372C70.9919 13.7382 73.2398 16.0056 76.0167 16.0056H81.8348C84.6117 16.0056 86.8596 13.7382 86.8596 10.9372V5.06845C86.8596 2.26746 84.6117 0 81.8348 0H76.0167C73.2398 0 70.9919 2.26746 70.9919 5.06845Z" fill="url(#paint0_linear_15845_14945)"/>
    <path d="M91.4876 26.1425L87.124 18.4065C86.7273 17.7396 85.934 17.4728 85.2728 17.873C84.6116 18.2731 84.3472 19.0734 84.7439 19.7403L89.1075 27.4763C89.372 27.8765 89.9009 28.1432 90.2976 28.1432C90.562 28.1432 90.6943 28.1432 90.9587 28.0099C91.6199 27.6097 91.8843 26.8094 91.4876 26.1425Z" fill="url(#paint1_linear_15845_14945)"/>
    <path d="M91.4876 50.5511L87.124 58.1538C86.8596 58.5539 86.4629 58.8207 85.934 58.8207C85.6695 58.8207 85.5373 58.8207 85.2728 58.6873C84.6116 58.2872 84.4794 57.4869 84.7439 56.82L89.1075 49.0839C89.5042 48.417 90.2976 48.2837 90.9587 48.5504C91.7521 49.0839 91.8843 49.8842 91.4876 50.5511Z" fill="url(#paint2_linear_15845_14945)"/>
    <path d="M31.8517 50.6845L36.0831 58.1538C36.2053 58.647 36.6665 58.7982 37.0489 58.9237L37.1409 58.9541C37.4054 58.9541 37.5376 58.9541 37.8021 58.8207C38.4632 58.4206 38.7277 57.6203 38.331 56.9534L34.0996 49.4841C33.7029 48.8172 32.9096 48.5504 32.2484 48.9506C31.5873 49.2173 31.3228 50.0176 31.8517 50.6845Z" fill="url(#paint3_linear_15845_14945)"/>
    <path d="M86.9918 71.6252V65.6231C86.9918 62.8221 84.7439 60.5546 81.8348 60.688H76.1489C73.3721 60.688 71.1242 62.9555 71.1242 65.7565V71.6252C71.1242 74.4262 73.3721 76.6936 76.1489 76.6936H81.967C84.7439 76.6936 86.9918 74.4262 86.9918 71.6252Z" fill="url(#paint4_linear_15845_14945)"/>
    <path d="M104.314 41.2145C104.314 44.0155 102.066 46.283 99.2892 46.283H93.4711C90.6943 46.283 88.4463 44.0155 88.4463 41.2145V35.3458C88.4463 32.5448 90.6943 30.2773 93.4711 30.2773H99.2892C102.066 30.2773 104.314 32.5448 104.314 35.3458V41.2145Z" fill="url(#paint5_linear_15845_14945)"/>
    <path d="M68.3473 69.2244C68.3473 69.8913 67.6862 70.5582 67.025 70.5582H56.1821C55.3887 70.5582 54.8598 69.8913 54.8598 69.2244C54.8598 68.4241 55.3887 67.8906 56.1821 67.8906H67.025C67.6862 67.8906 68.3473 68.4241 68.3473 69.2244Z" fill="url(#paint6_linear_15845_14945)"/>
    <path d="M56.1821 6.00211C55.3887 6.00211 54.8598 6.66901 54.8598 7.33591C54.8598 8.1362 55.521 8.66972 56.1821 8.66972H67.025C67.6862 8.66972 68.3473 8.00282 68.3473 7.33591C68.3473 6.66901 67.6862 6.00211 67.025 6.00211H56.1821Z" fill="url(#paint7_linear_15845_14945)"/>
    <path d="M30.6616 46.4163H24.7113C21.9344 46.4163 19.6865 44.1489 19.6865 41.3479V35.4791C19.6865 32.5448 21.9344 30.2773 24.7113 30.2773H30.5294C33.3063 30.2773 35.5542 32.5448 35.5542 35.3458V41.2145C35.6864 44.0155 33.4385 46.4163 30.6616 46.4163Z" fill="url(#paint8_linear_15845_14945)"/>
    <path d="M52.2152 71.6252V65.6231C52.2152 62.8221 49.9673 60.5546 47.1904 60.688H41.3723C38.5955 60.688 36.3476 62.9555 36.3476 65.7565V71.6252C36.3476 74.4262 38.5955 76.6936 41.3723 76.6936H47.1904C49.9673 76.6936 52.2152 74.4262 52.2152 71.6252Z" fill="url(#paint9_linear_15845_14945)"/>
    <path d="M36.2153 10.9372V5.06845C36.2153 2.26746 38.4632 0 41.2401 0H47.0582C49.8351 0 52.083 2.26746 52.083 5.06845V10.9372C52.083 13.7382 49.8351 16.0056 47.0582 16.0056H41.2401C38.4632 16.0056 36.2153 13.7382 36.2153 10.9372Z" fill="url(#paint10_linear_15845_14945)"/>
    <path d="M35.9509 18.4065L31.7195 25.8758C31.3228 26.5427 31.5873 27.343 32.2484 27.7431C32.5129 27.8765 32.6451 27.8765 32.9096 27.8765C33.4385 27.8765 33.8352 27.6097 34.0996 27.2096L38.331 19.7403C38.5955 19.0734 38.4632 18.2731 37.8021 17.873C37.1409 17.6062 36.3476 17.7396 35.9509 18.4065Z" fill="url(#paint11_linear_15845_14945)"/>
    <path d="M53.6612 42.0104C55.6785 42.0104 57.314 40.3701 57.314 38.3468C57.314 36.3236 55.6785 34.6833 53.6612 34.6833C51.6439 34.6833 50.0084 36.3236 50.0084 38.3468C50.0084 40.3701 51.6439 42.0104 53.6612 42.0104Z" fill="url(#paint12_linear_15845_14945)"/>
    <path fill-rule="evenodd" clip-rule="evenodd" d="M40.6626 38.3468C40.6626 26.7587 50.0539 17.3646 61.6386 17.3646C73.2234 17.3646 82.6146 26.7587 82.6146 38.3468C82.6146 49.935 73.2234 59.329 61.6386 59.329C50.0539 59.329 40.6626 49.935 40.6626 38.3468ZM53.6612 46.3056C57.2714 46.3056 60.3183 43.8879 61.2804 40.5787H68.9023V44.6568C68.9023 44.7767 68.9994 44.8739 69.1193 44.8739H71.7573V43.3579C71.7573 42.567 72.3963 41.9262 73.1849 41.9262C73.9734 41.9262 74.6124 42.567 74.6124 43.3579V44.8739H77.3345C77.4543 44.8739 77.5515 44.7767 77.5515 44.6568V37.6463C77.5515 36.8471 76.9038 36.1992 76.1048 36.1992H61.3044C60.3698 32.8469 57.3019 30.3881 53.6612 30.3881C49.2785 30.3881 45.7257 33.9513 45.7257 38.3468C45.7257 42.7424 49.2785 46.3056 53.6612 46.3056Z" fill="url(#paint13_linear_15845_14945)"/>
    <path d="M12.8612 120C8.9958 120 6.01327 118.974 3.91357 116.922C1.83773 114.846 0.799805 111.637 0.799805 107.294C0.799805 104.407 1.30087 102.033 2.303 100.172C3.30513 98.2872 4.76061 96.8914 6.66943 95.9847C8.57825 95.0541 10.8688 94.5889 13.5412 94.5889C15.1398 94.5889 16.643 94.7678 18.0508 95.1257C19.4585 95.4836 20.6993 96.0324 21.773 96.7721C22.8705 97.5117 23.7176 98.4423 24.3141 99.5637C24.9344 100.661 25.2446 101.974 25.2446 103.501H19.8403C19.8403 102.761 19.6733 102.105 19.3392 101.532C19.029 100.96 18.5876 100.482 18.015 100.101C17.4423 99.7188 16.7862 99.4325 16.0465 99.2416C15.3068 99.0507 14.5314 98.9553 13.7201 98.9553C12.4794 98.9553 11.3938 99.1223 10.4632 99.4564C9.53265 99.7665 8.7572 100.256 8.13683 100.924C7.54032 101.568 7.08698 102.379 6.7768 103.358C6.46661 104.336 6.31152 105.469 6.31152 106.758V107.831C6.31152 109.621 6.57398 111.088 7.09891 112.234C7.62384 113.379 8.41122 114.238 9.46107 114.81C10.5109 115.359 11.8113 115.634 13.3622 115.634C14.6507 115.634 15.784 115.443 16.7623 115.061C17.7644 114.655 18.5399 114.083 19.0887 113.343C19.6613 112.603 19.9477 111.697 19.9477 110.623V110.372H12.6106V106.292H25.2446V119.571H21.7372L21.2719 116.922C20.5561 117.614 19.7806 118.187 18.9455 118.64C18.1343 119.093 17.2276 119.427 16.2255 119.642C15.2233 119.881 14.1019 120 12.8612 120Z" fill="#222222"/>
    <path d="M31.668 119.571V95.0184H37.0008V119.571H31.668Z" fill="#222222"/>
    <path d="M41.206 119.571L50.6546 95.0184H57.2401L66.6887 119.571H60.9265L59.1727 114.739H48.4714L46.7177 119.571H41.206ZM50.0104 110.444H57.6338L55.4505 104.395C55.3551 104.133 55.2358 103.823 55.0926 103.465C54.9733 103.083 54.8421 102.666 54.6989 102.212C54.5558 101.759 54.4126 101.317 54.2695 100.888C54.1502 100.435 54.0309 100.029 53.9116 99.6711H53.6968C53.5775 100.124 53.4224 100.661 53.2315 101.282C53.0407 101.878 52.8498 102.463 52.6589 103.035C52.468 103.584 52.3129 104.038 52.1936 104.395L50.0104 110.444Z" fill="#222222"/>
    <path d="M70.8886 119.571V95.0184H75.7919L85.67 108.261C85.8132 108.428 85.9921 108.666 86.2069 108.977C86.4216 109.263 86.6245 109.549 86.8153 109.836C87.0062 110.122 87.1374 110.349 87.209 110.516H87.388C87.388 110.11 87.388 109.716 87.388 109.334C87.388 108.929 87.388 108.571 87.388 108.261V95.0184H92.4344V119.571H87.5311L77.4382 106.006C77.1996 105.672 76.9491 105.302 76.6867 104.896C76.4242 104.491 76.2333 104.181 76.114 103.966H75.9351C75.9351 104.324 75.9351 104.682 75.9351 105.04C75.9351 105.374 75.9351 105.696 75.9351 106.006V119.571H70.8886Z" fill="#222222"/>
    <path d="M110.602 120C108.002 120 105.759 119.535 103.874 118.604C101.989 117.674 100.545 116.266 99.5431 114.381C98.541 112.496 98.0399 110.134 98.0399 107.294C98.0399 104.407 98.541 102.033 99.5431 100.172C100.545 98.2872 101.989 96.8914 103.874 95.9847C105.759 95.0541 108.002 94.5889 110.602 94.5889C113.251 94.5889 115.506 95.0541 117.367 95.9847C119.252 96.8914 120.695 98.2872 121.697 100.172C122.699 102.033 123.201 104.407 123.201 107.294C123.201 110.134 122.699 112.496 121.697 114.381C120.695 116.266 119.252 117.674 117.367 118.604C115.506 119.535 113.251 120 110.602 120ZM110.602 115.634C111.771 115.634 112.797 115.467 113.68 115.133C114.563 114.798 115.303 114.297 115.899 113.629C116.496 112.961 116.949 112.15 117.259 111.196C117.57 110.217 117.725 109.108 117.725 107.867V106.758C117.725 105.493 117.57 104.372 117.259 103.393C116.949 102.415 116.496 101.604 115.899 100.96C115.303 100.291 114.563 99.7904 113.68 99.4564C112.797 99.1223 111.771 98.9553 110.602 98.9553C109.457 98.9553 108.443 99.1223 107.56 99.4564C106.677 99.7904 105.938 100.291 105.341 100.96C104.745 101.604 104.291 102.415 103.981 103.393C103.695 104.372 103.552 105.493 103.552 106.758V107.867C103.552 109.108 103.695 110.217 103.981 111.196C104.291 112.15 104.745 112.961 105.341 113.629C105.938 114.297 106.677 114.798 107.56 115.133C108.443 115.467 109.457 115.634 110.602 115.634Z" fill="#222222"/>
    <defs>
        <linearGradient id="paint0_linear_15845_14945" x1="29.9123" y1="62.6331" x2="141.39" y2="-43.4964" gradientUnits="userSpaceOnUse">
            <stop offset="0.28141" stop-color="#8C78FF"/>
            <stop offset="0.950283" stop-color="white"/>
        </linearGradient>
        <linearGradient id="paint1_linear_15845_14945" x1="29.9123" y1="62.6331" x2="141.39" y2="-43.4964" gradientUnits="userSpaceOnUse">
            <stop offset="0.28141" stop-color="#8C78FF"/>
            <stop offset="0.950283" stop-color="white"/>
        </linearGradient>
        <linearGradient id="paint2_linear_15845_14945" x1="29.9123" y1="62.6331" x2="141.39" y2="-43.4964" gradientUnits="userSpaceOnUse">
            <stop offset="0.28141" stop-color="#8C78FF"/>
            <stop offset="0.950283" stop-color="white"/>
        </linearGradient>
        <linearGradient id="paint3_linear_15845_14945" x1="29.9123" y1="62.6331" x2="141.39" y2="-43.4964" gradientUnits="userSpaceOnUse">
            <stop offset="0.28141" stop-color="#8C78FF"/>
            <stop offset="0.950283" stop-color="white"/>
        </linearGradient>
        <linearGradient id="paint4_linear_15845_14945" x1="29.9123" y1="62.6331" x2="141.39" y2="-43.4964" gradientUnits="userSpaceOnUse">
            <stop offset="0.28141" stop-color="#8C78FF"/>
            <stop offset="0.950283" stop-color="white"/>
        </linearGradient>
        <linearGradient id="paint5_linear_15845_14945" x1="29.9123" y1="62.6331" x2="141.39" y2="-43.4964" gradientUnits="userSpaceOnUse">
            <stop offset="0.28141" stop-color="#8C78FF"/>
            <stop offset="0.950283" stop-color="white"/>
        </linearGradient>
        <linearGradient id="paint6_linear_15845_14945" x1="29.9123" y1="62.6331" x2="141.39" y2="-43.4964" gradientUnits="userSpaceOnUse">
            <stop offset="0.28141" stop-color="#8C78FF"/>
            <stop offset="0.950283" stop-color="white"/>
        </linearGradient>
        <linearGradient id="paint7_linear_15845_14945" x1="29.9123" y1="62.6331" x2="141.39" y2="-43.4964" gradientUnits="userSpaceOnUse">
            <stop offset="0.28141" stop-color="#8C78FF"/>
            <stop offset="0.950283" stop-color="white"/>
        </linearGradient>
        <linearGradient id="paint8_linear_15845_14945" x1="29.9123" y1="62.6331" x2="141.39" y2="-43.4964" gradientUnits="userSpaceOnUse">
            <stop offset="0.28141" stop-color="#8C78FF"/>
            <stop offset="0.950283" stop-color="white"/>
        </linearGradient>
        <linearGradient id="paint9_linear_15845_14945" x1="29.9123" y1="62.6331" x2="141.39" y2="-43.4964" gradientUnits="userSpaceOnUse">
            <stop offset="0.28141" stop-color="#8C78FF"/>
            <stop offset="0.950283" stop-color="white"/>
        </linearGradient>
        <linearGradient id="paint10_linear_15845_14945" x1="29.9123" y1="62.6331" x2="141.39" y2="-43.4964" gradientUnits="userSpaceOnUse">
            <stop offset="0.28141" stop-color="#8C78FF"/>
            <stop offset="0.950283" stop-color="white"/>
        </linearGradient>
        <linearGradient id="paint11_linear_15845_14945" x1="29.9123" y1="62.6331" x2="141.39" y2="-43.4964" gradientUnits="userSpaceOnUse">
            <stop offset="0.28141" stop-color="#8C78FF"/>
            <stop offset="0.950283" stop-color="white"/>
        </linearGradient>
        <linearGradient id="paint12_linear_15845_14945" x1="29.9123" y1="62.6331" x2="141.39" y2="-43.4964" gradientUnits="userSpaceOnUse">
            <stop offset="0.28141" stop-color="#8C78FF"/>
            <stop offset="0.950283" stop-color="white"/>
        </linearGradient>
        <linearGradient id="paint13_linear_15845_14945" x1="29.9123" y1="62.6331" x2="141.39" y2="-43.4964" gradientUnits="userSpaceOnUse">
            <stop offset="0.28141" stop-color="#8C78FF"/>
            <stop offset="0.950283" stop-color="white"/>
        </linearGradient>
    </defs>
</svg>
