<svg width="147" height="30" viewBox="0 0 147 30" fill="none" xmlns="http://www.w3.org/2000/svg">
    <path d="M20.069 1.98261V4.27826C20.069 5.37391 20.9483 6.26087 22.0345 6.26087H24.3103C25.3966 6.26087 26.2759 5.37391 26.2759 4.27826V1.98261C26.2759 0.886957 25.3966 0 24.3103 0H22.0345C20.9483 0 20.069 0.886957 20.069 1.98261Z" fill="url(#paint0_linear_17701_25742)"/>
    <path d="M28.0862 10.2261L26.3793 7.2C26.2241 6.93913 25.9138 6.83478 25.6552 6.9913C25.3965 7.14783 25.2931 7.46087 25.4483 7.72174L27.1552 10.7478C27.2586 10.9043 27.4655 11.0087 27.6207 11.0087C27.7241 11.0087 27.7759 11.0087 27.8793 10.9565C28.1379 10.8 28.2414 10.487 28.0862 10.2261Z" fill="url(#paint1_linear_17701_25742)"/>
    <path d="M28.0862 19.7739L26.3793 22.7478C26.2759 22.9043 26.1207 23.0087 25.9138 23.0087C25.8103 23.0087 25.7586 23.0087 25.6552 22.9565C25.3965 22.8 25.3448 22.487 25.4483 22.2261L27.1552 19.2C27.3103 18.9391 27.6207 18.887 27.8793 18.9913C28.1897 19.2 28.2414 19.513 28.0862 19.7739Z" fill="url(#paint2_linear_17701_25742)"/>
    <path d="M4.75862 19.8261L6.41379 22.7478C6.46161 22.9407 6.64201 22.9999 6.79159 23.049L6.82759 23.0609C6.93103 23.0609 6.98276 23.0609 7.08621 23.0087C7.34483 22.8522 7.44828 22.5391 7.2931 22.2783L5.63793 19.3565C5.48276 19.0957 5.17241 18.9913 4.91379 19.1478C4.65517 19.2522 4.55172 19.5652 4.75862 19.8261Z" fill="url(#paint3_linear_17701_25742)"/>
    <path d="M26.3276 28.0174V25.6696C26.3276 24.5739 25.4483 23.687 24.3103 23.7391H22.0862C21 23.7391 20.1207 24.6261 20.1207 25.7217V28.0174C20.1207 29.113 21 30 22.0862 30H24.3621C25.4483 30 26.3276 29.113 26.3276 28.0174Z" fill="url(#paint4_linear_17701_25742)"/>
    <path d="M33.1035 16.1217C33.1035 17.2174 32.2241 18.1043 31.1379 18.1043H28.8621C27.7759 18.1043 26.8966 17.2174 26.8966 16.1217V13.8261C26.8966 12.7304 27.7759 11.8435 28.8621 11.8435H31.1379C32.2241 11.8435 33.1035 12.7304 33.1035 13.8261V16.1217Z" fill="url(#paint5_linear_17701_25742)"/>
    <path d="M19.0345 27.0783C19.0345 27.3391 18.7759 27.6 18.5172 27.6H14.2759C13.9655 27.6 13.7586 27.3391 13.7586 27.0783C13.7586 26.7652 13.9655 26.5565 14.2759 26.5565H18.5172C18.7759 26.5565 19.0345 26.7652 19.0345 27.0783Z" fill="url(#paint6_linear_17701_25742)"/>
    <path d="M14.2759 2.34783C13.9655 2.34783 13.7586 2.6087 13.7586 2.86957C13.7586 3.18261 14.0172 3.3913 14.2759 3.3913H18.5172C18.7759 3.3913 19.0345 3.13043 19.0345 2.86957C19.0345 2.6087 18.7759 2.34783 18.5172 2.34783H14.2759Z" fill="url(#paint7_linear_17701_25742)"/>
    <path d="M4.2931 18.1565H1.96552C0.87931 18.1565 0 17.2696 0 16.1739V13.8783C0 12.7304 0.87931 11.8435 1.96552 11.8435H4.24138C5.32759 11.8435 6.2069 12.7304 6.2069 13.8261V16.1217C6.25862 17.2174 5.37931 18.1565 4.2931 18.1565Z" fill="url(#paint8_linear_17701_25742)"/>
    <path d="M12.7241 28.0174V25.6696C12.7241 24.5739 11.8448 23.687 10.7586 23.7391H8.48276C7.39655 23.7391 6.51724 24.6261 6.51724 25.7217V28.0174C6.51724 29.113 7.39655 30 8.48276 30H10.7586C11.8448 30 12.7241 29.113 12.7241 28.0174Z" fill="url(#paint9_linear_17701_25742)"/>
    <path d="M6.46552 4.27826V1.98261C6.46552 0.886957 7.34483 0 8.43103 0H10.7069C11.7931 0 12.6724 0.886957 12.6724 1.98261V4.27826C12.6724 5.37391 11.7931 6.26087 10.7069 6.26087H8.43103C7.34483 6.26087 6.46552 5.37391 6.46552 4.27826Z" fill="url(#paint10_linear_17701_25742)"/>
    <path d="M6.36207 7.2L4.7069 10.1217C4.55172 10.3826 4.65517 10.6957 4.91379 10.8522C5.01724 10.9043 5.06897 10.9043 5.17241 10.9043C5.37931 10.9043 5.53448 10.8 5.63793 10.6435L7.2931 7.72174C7.39655 7.46087 7.34483 7.14783 7.08621 6.9913C6.82759 6.88696 6.51724 6.93913 6.36207 7.2Z" fill="url(#paint11_linear_17701_25742)"/>
    <path d="M13.2898 16.4331C14.0789 16.4331 14.7186 15.7914 14.7186 15C14.7186 14.2086 14.0789 13.5669 13.2898 13.5669C12.5006 13.5669 11.8609 14.2086 11.8609 15C11.8609 15.7914 12.5006 16.4331 13.2898 16.4331Z" fill="url(#paint12_linear_17701_25742)"/>
    <path fill-rule="evenodd" clip-rule="evenodd" d="M8.20513 15C8.20513 10.4671 11.8787 6.79245 16.4103 6.79245C20.9418 6.79245 24.6154 10.4671 24.6154 15C24.6154 19.5329 20.9418 23.2075 16.4103 23.2075C11.8787 23.2075 8.20513 19.5329 8.20513 15ZM13.2898 18.1132C14.7019 18.1132 15.8938 17.1675 16.2701 15.873H19.2516V17.4683C19.2516 17.5151 19.2896 17.5532 19.3364 17.5532H20.3684V16.9602C20.3684 16.6508 20.6183 16.4001 20.9268 16.4001C21.2352 16.4001 21.4852 16.6508 21.4852 16.9602V17.5532H22.55C22.5968 17.5532 22.6348 17.5151 22.6348 17.4683V14.726C22.6348 14.4134 22.3815 14.1599 22.069 14.1599H16.2795C15.914 12.8486 14.7139 11.8868 13.2898 11.8868C11.5754 11.8868 10.1857 13.2806 10.1857 15C10.1857 16.7194 11.5754 18.1132 13.2898 18.1132Z" fill="url(#paint13_linear_17701_25742)"/>
    <path d="M52.5395 24.9401C49.5155 24.9401 47.1822 24.1374 45.5395 22.5321C43.9155 20.9081 43.1035 18.3974 43.1035 15.0001C43.1035 12.7414 43.4955 10.8841 44.2795 9.42806C45.0635 7.95339 46.2022 6.86139 47.6955 6.15206C49.1888 5.42406 50.9808 5.06006 53.0715 5.06006C54.3222 5.06006 55.4982 5.20006 56.5995 5.48006C57.7008 5.76006 58.6715 6.18939 59.5115 6.76806C60.3702 7.34673 61.0328 8.07473 61.4995 8.95206C61.9848 9.81073 62.2275 10.8374 62.2275 12.0321H57.9995C57.9995 11.4534 57.8688 10.9401 57.6075 10.4921C57.3648 10.0441 57.0195 9.67073 56.5715 9.37206C56.1235 9.07339 55.6102 8.84939 55.0315 8.70006C54.4528 8.55072 53.8462 8.47606 53.2115 8.47606C52.2408 8.47606 51.3915 8.60672 50.6635 8.86806C49.9355 9.11072 49.3288 9.49339 48.8435 10.0161C48.3768 10.5201 48.0222 11.1547 47.7795 11.9201C47.5368 12.6854 47.4155 13.5721 47.4155 14.5801V15.4201C47.4155 16.8201 47.6208 17.9681 48.0315 18.8641C48.4422 19.7601 49.0582 20.4321 49.8795 20.8801C50.7008 21.3094 51.7182 21.5241 52.9315 21.5241C53.9395 21.5241 54.8262 21.3747 55.5915 21.0761C56.3755 20.7587 56.9822 20.3107 57.4115 19.7321C57.8595 19.1534 58.0835 18.4441 58.0835 17.6041V17.4081H52.3435V14.2161H62.2275V24.6041H59.4835L59.1195 22.5321C58.5595 23.0734 57.9529 23.5214 57.2995 23.8761C56.6649 24.2307 55.9555 24.4921 55.1715 24.6601C54.3875 24.8467 53.5102 24.9401 52.5395 24.9401Z" fill="#222222"/>
    <path d="M67.2527 24.6041V5.39606H71.4247V24.6041H67.2527Z" fill="#222222"/>
    <path d="M74.7146 24.6041L82.1066 5.39606H87.2586L94.6506 24.6041H90.1426L88.7706 20.8241H80.3986L79.0266 24.6041H74.7146ZM81.6026 17.4641H87.5666L85.8586 12.7321C85.7839 12.5267 85.6906 12.2841 85.5786 12.0041C85.4853 11.7054 85.3826 11.3787 85.2706 11.0241C85.1586 10.6694 85.0466 10.3241 84.9346 9.98806C84.8413 9.63339 84.7479 9.31606 84.6546 9.03606H84.4866C84.3933 9.39073 84.2719 9.81073 84.1226 10.2961C83.9733 10.7627 83.8239 11.2201 83.6746 11.6681C83.5253 12.0974 83.4039 12.4521 83.3106 12.7321L81.6026 17.4641Z" fill="#222222"/>
    <path d="M97.9363 24.6041V5.39606H101.772L109.5 15.7561C109.612 15.8867 109.752 16.0734 109.92 16.3161C110.088 16.5401 110.247 16.7641 110.396 16.9881C110.546 17.2121 110.648 17.3894 110.704 17.5201H110.844C110.844 17.2027 110.844 16.8947 110.844 16.5961C110.844 16.2787 110.844 15.9987 110.844 15.7561V5.39606H114.792V24.6041H110.956L103.06 13.9921C102.874 13.7307 102.678 13.4414 102.472 13.1241C102.267 12.8067 102.118 12.5641 102.024 12.3961H101.884C101.884 12.6761 101.884 12.9561 101.884 13.2361C101.884 13.4974 101.884 13.7494 101.884 13.9921V24.6041H97.9363Z" fill="#222222"/>
    <path d="M129.006 24.9401C126.971 24.9401 125.216 24.5761 123.742 23.8481C122.267 23.1201 121.138 22.0187 120.354 20.5441C119.57 19.0694 119.178 17.2214 119.178 15.0001C119.178 12.7414 119.57 10.8841 120.354 9.42806C121.138 7.95339 122.267 6.86139 123.742 6.15206C125.216 5.42406 126.971 5.06006 129.006 5.06006C131.078 5.06006 132.842 5.42406 134.298 6.15206C135.772 6.86139 136.902 7.95339 137.686 9.42806C138.47 10.8841 138.862 12.7414 138.862 15.0001C138.862 17.2214 138.47 19.0694 137.686 20.5441C136.902 22.0187 135.772 23.1201 134.298 23.8481C132.842 24.5761 131.078 24.9401 129.006 24.9401ZM129.006 21.5241C129.92 21.5241 130.723 21.3934 131.414 21.1321C132.104 20.8707 132.683 20.4787 133.15 19.9561C133.616 19.4334 133.971 18.7987 134.214 18.0521C134.456 17.2867 134.578 16.4187 134.578 15.4481V14.5801C134.578 13.5907 134.456 12.7134 134.214 11.9481C133.971 11.1827 133.616 10.5481 133.15 10.0441C132.683 9.52139 132.104 9.12939 131.414 8.86806C130.723 8.60672 129.92 8.47606 129.006 8.47606C128.11 8.47606 127.316 8.60672 126.626 8.86806C125.935 9.12939 125.356 9.52139 124.89 10.0441C124.423 10.5481 124.068 11.1827 123.826 11.9481C123.602 12.7134 123.49 13.5907 123.49 14.5801V15.4481C123.49 16.4187 123.602 17.2867 123.826 18.0521C124.068 18.7987 124.423 19.4334 124.89 19.9561C125.356 20.4787 125.935 20.8707 126.626 21.1321C127.316 21.3934 128.11 21.5241 129.006 21.5241Z" fill="#222222"/>
    <defs>
        <linearGradient id="paint0_linear_17701_25742" x1="4" y1="24.5" x2="47.6063" y2="-17.0143" gradientUnits="userSpaceOnUse">
            <stop offset="0.28141" stop-color="#8C78FF"/>
            <stop offset="0.950283" stop-color="white"/>
        </linearGradient>
        <linearGradient id="paint1_linear_17701_25742" x1="4" y1="24.5" x2="47.6063" y2="-17.0143" gradientUnits="userSpaceOnUse">
            <stop offset="0.28141" stop-color="#8C78FF"/>
            <stop offset="0.950283" stop-color="white"/>
        </linearGradient>
        <linearGradient id="paint2_linear_17701_25742" x1="4" y1="24.5" x2="47.6063" y2="-17.0143" gradientUnits="userSpaceOnUse">
            <stop offset="0.28141" stop-color="#8C78FF"/>
            <stop offset="0.950283" stop-color="white"/>
        </linearGradient>
        <linearGradient id="paint3_linear_17701_25742" x1="4" y1="24.5" x2="47.6063" y2="-17.0143" gradientUnits="userSpaceOnUse">
            <stop offset="0.28141" stop-color="#8C78FF"/>
            <stop offset="0.950283" stop-color="white"/>
        </linearGradient>
        <linearGradient id="paint4_linear_17701_25742" x1="4" y1="24.5" x2="47.6063" y2="-17.0143" gradientUnits="userSpaceOnUse">
            <stop offset="0.28141" stop-color="#8C78FF"/>
            <stop offset="0.950283" stop-color="white"/>
        </linearGradient>
        <linearGradient id="paint5_linear_17701_25742" x1="4" y1="24.5" x2="47.6063" y2="-17.0143" gradientUnits="userSpaceOnUse">
            <stop offset="0.28141" stop-color="#8C78FF"/>
            <stop offset="0.950283" stop-color="white"/>
        </linearGradient>
        <linearGradient id="paint6_linear_17701_25742" x1="4" y1="24.5" x2="47.6063" y2="-17.0143" gradientUnits="userSpaceOnUse">
            <stop offset="0.28141" stop-color="#8C78FF"/>
            <stop offset="0.950283" stop-color="white"/>
        </linearGradient>
        <linearGradient id="paint7_linear_17701_25742" x1="4" y1="24.5" x2="47.6063" y2="-17.0143" gradientUnits="userSpaceOnUse">
            <stop offset="0.28141" stop-color="#8C78FF"/>
            <stop offset="0.950283" stop-color="white"/>
        </linearGradient>
        <linearGradient id="paint8_linear_17701_25742" x1="4" y1="24.5" x2="47.6063" y2="-17.0143" gradientUnits="userSpaceOnUse">
            <stop offset="0.28141" stop-color="#8C78FF"/>
            <stop offset="0.950283" stop-color="white"/>
        </linearGradient>
        <linearGradient id="paint9_linear_17701_25742" x1="4" y1="24.5" x2="47.6063" y2="-17.0143" gradientUnits="userSpaceOnUse">
            <stop offset="0.28141" stop-color="#8C78FF"/>
            <stop offset="0.950283" stop-color="white"/>
        </linearGradient>
        <linearGradient id="paint10_linear_17701_25742" x1="4" y1="24.5" x2="47.6063" y2="-17.0143" gradientUnits="userSpaceOnUse">
            <stop offset="0.28141" stop-color="#8C78FF"/>
            <stop offset="0.950283" stop-color="white"/>
        </linearGradient>
        <linearGradient id="paint11_linear_17701_25742" x1="4" y1="24.5" x2="47.6063" y2="-17.0143" gradientUnits="userSpaceOnUse">
            <stop offset="0.28141" stop-color="#8C78FF"/>
            <stop offset="0.950283" stop-color="white"/>
        </linearGradient>
        <linearGradient id="paint12_linear_17701_25742" x1="4" y1="24.5" x2="47.6063" y2="-17.0143" gradientUnits="userSpaceOnUse">
            <stop offset="0.28141" stop-color="#8C78FF"/>
            <stop offset="0.950283" stop-color="white"/>
        </linearGradient>
        <linearGradient id="paint13_linear_17701_25742" x1="4" y1="24.5" x2="47.6063" y2="-17.0143" gradientUnits="userSpaceOnUse">
            <stop offset="0.28141" stop-color="#8C78FF"/>
            <stop offset="0.950283" stop-color="white"/>
        </linearGradient>
    </defs>
</svg>
